<?xml version="1.0" encoding="UTF-8" standalone="no"?>
<!DOCTYPE svg PUBLIC "-//W3C//DTD SVG 1.1//EN" "http://www.w3.org/Graphics/SVG/1.1/DTD/svg11.dtd">
<svg width="100%" height="100%" viewBox="0 0 450 469" version="1.1" xmlns="http://www.w3.org/2000/svg" xmlns:xlink="http://www.w3.org/1999/xlink" xml:space="preserve" style="fill-rule:evenodd;clip-rule:evenodd;stroke-linejoin:round;stroke-miterlimit:1.41421;">
    <g transform="matrix(20.0671,0,0,20.0671,-4921.06,-9892.01)">
        <path d="M267.655,504.563C267.655,500.831 266.046,497.612 263.438,495.563C261.735,493.943 259.432,492.947 256.895,492.947C253.596,492.947 250.689,494.63 248.986,497.183C250.583,494.978 253.178,493.543 256.109,493.543C258.779,493.543 261.168,494.734 262.781,496.612C261.23,495.514 259.337,494.869 257.293,494.869C255.16,494.869 253.192,495.571 251.606,496.758C252.938,495.946 254.502,495.478 256.176,495.478C261.03,495.478 264.965,499.413 264.965,504.268C264.965,504.945 264.888,505.604 264.743,506.238C264.511,502.35 261.944,499.092 258.423,497.85C260.889,499.407 262.526,502.156 262.526,505.287C262.526,510.142 258.591,514.077 253.737,514.077C250.606,514.077 247.857,512.439 246.3,509.973C247.603,513.666 251.123,516.313 255.261,516.313C255.772,516.313 256.273,516.271 256.762,516.193C262.834,515.782 267.655,510.737 267.655,504.563" style="fill-opacity:0.610976;fill-rule:nonzero;"/>
    </g>
    <g transform="matrix(20.0671,0,0,20.0671,-4921.06,-9892.01)">
        <path d="M257.067,504.925C257.067,508.194 254.417,510.844 251.148,510.844C247.879,510.844 245.23,508.194 245.23,504.925C245.23,501.656 247.879,499.006 251.148,499.006C254.417,499.006 257.067,501.656 257.067,504.925" style="fill-opacity:0.610976;fill-rule:nonzero;"/>
    </g>
</svg>
