<?xml version="1.0" encoding="UTF-8" standalone="no"?><!DOCTYPE svg PUBLIC "-//W3C//DTD SVG 1.1//EN" "http://www.w3.org/Graphics/SVG/1.1/DTD/svg11.dtd"><svg width="100%" height="100%" viewBox="0 0 23 24" version="1.1" xmlns="http://www.w3.org/2000/svg" xmlns:xlink="http://www.w3.org/1999/xlink" xml:space="preserve" style="fill-rule:evenodd;clip-rule:evenodd;stroke-linejoin:round;stroke-miterlimit:1.41421;"><path d="M22.425,11.616c0,-3.732 -1.609,-6.951 -4.217,-9c-1.703,-1.62 -4.006,-2.616 -6.543,-2.616c-3.299,0 -6.206,1.683 -7.909,4.236c1.597,-2.205 4.192,-3.64 7.123,-3.64c2.67,0 5.059,1.191 6.672,3.069c-1.551,-1.098 -3.444,-1.743 -5.488,-1.743c-2.133,0 -4.101,0.702 -5.687,1.889c1.332,-0.812 2.896,-1.28 4.57,-1.28c4.854,0 8.789,3.935 8.789,8.79c0,0.677 -0.077,1.336 -0.222,1.97c-0.232,-3.888 -2.799,-7.146 -6.32,-8.388c2.466,1.557 4.103,4.306 4.103,7.437c0,4.855 -3.935,8.79 -8.789,8.79c-3.131,0 -5.88,-1.638 -7.437,-4.104c1.303,3.693 4.823,6.34 8.961,6.34c0.511,0 1.012,-0.042 1.501,-0.12c6.072,-0.411 10.893,-5.456 10.893,-11.63" style="fill:#fff;fill-opacity:0.5;fill-rule:nonzero;"/><path d="M11.837,11.978c0,3.269 -2.65,5.919 -5.919,5.919c-3.269,0 -5.918,-2.65 -5.918,-5.919c0,-3.269 2.649,-5.919 5.918,-5.919c3.269,0 5.919,2.65 5.919,5.919" style="fill:#fff;fill-opacity:0.5;fill-rule:nonzero;"/></svg>