<?xml version="1.0" encoding="UTF-8" standalone="no"?><!DOCTYPE svg PUBLIC "-//W3C//DTD SVG 1.1//EN" "http://www.w3.org/Graphics/SVG/1.1/DTD/svg11.dtd"><svg width="100%" height="100%" viewBox="0 0 450 470" version="1.1" xmlns="http://www.w3.org/2000/svg" xmlns:xlink="http://www.w3.org/1999/xlink" xml:space="preserve" style="fill-rule:evenodd;clip-rule:evenodd;stroke-linejoin:round;stroke-miterlimit:1.41421;"><path d="M438.75,227.27c0,-73.018 -31.48,-135.998 -82.507,-176.087c-33.319,-31.696 -78.378,-51.183 -128.015,-51.183c-64.545,0 -121.421,32.928 -154.741,82.878c31.246,-43.141 82.017,-71.217 139.363,-71.217c52.239,0 98.98,23.302 130.539,60.046c-30.346,-21.483 -67.382,-34.103 -107.374,-34.103c-41.732,0 -80.237,13.735 -111.267,36.959c26.061,-15.887 56.661,-25.043 89.413,-25.043c94.969,0 171.959,76.989 171.959,171.978c0,13.245 -1.507,26.139 -4.344,38.543c-4.539,-76.069 -54.763,-139.813 -123.652,-164.113c48.248,30.463 80.276,84.248 80.276,145.507c0,94.989 -76.989,171.978 -171.959,171.978c-61.258,0 -115.043,-32.048 -145.506,-80.296c25.493,72.255 94.363,124.044 175.324,124.044c9.998,0 19.8,-0.822 29.367,-2.348c118.8,-8.041 213.124,-106.748 213.124,-227.543" style="fill:#fff;fill-opacity:0.397894;fill-rule:nonzero;"/><path d="M231.593,234.352c0,63.959 -51.847,115.807 -115.806,115.807c-63.959,0 -115.787,-51.848 -115.787,-115.807c0,-63.959 51.828,-115.806 115.787,-115.806c63.959,0 115.806,51.847 115.806,115.806" style="fill:#fff;fill-opacity:0.498039;fill-rule:nonzero;"/></svg>