<?xml version="1.0" encoding="UTF-8" standalone="no"?>
<!DOCTYPE svg PUBLIC "-//W3C//DTD SVG 1.1//EN" "http://www.w3.org/Graphics/SVG/1.1/DTD/svg11.dtd">
<svg width="100%" height="100%" viewBox="0 0 480 318" version="1.1" xmlns="http://www.w3.org/2000/svg" xmlns:xlink="http://www.w3.org/1999/xlink" xml:space="preserve" style="fill-rule:evenodd;clip-rule:evenodd;stroke-linejoin:round;stroke-miterlimit:1.41421;">
    <g transform="matrix(1,0,0,1,5.70724e-15,-0.877203)">
        <g transform="matrix(0.997898,0,0,0.997248,-1.20133e-17,0.877203)">
            <path d="M315.663,37.779C315.661,37.792 315.66,37.805 315.66,37.818C316.798,36.684 317.931,35.526 319.068,34.397C319.735,33.647 320.56,33.234 320.877,33.497C321.198,33.751 320.91,34.593 320.235,35.343C317.964,38.284 315.656,41.209 313.348,44.139C312.998,44.705 312.623,45.272 312.214,45.847L313.164,45.28C319.248,41.493 323.227,42.834 322.089,48.264C322.043,48.472 321.952,48.697 321.893,48.914C325.568,44.793 329.256,40.672 332.981,36.522C339.877,28.047 348.927,22.768 353.156,24.697C355.698,25.901 355.923,29.439 354.185,33.922C354.793,33.272 355.402,32.63 356.018,31.989L359.248,29.23C362.327,26.634 365.435,24.855 367.993,24.28L371.364,23.351C376.623,22.826 383.102,20.114 388.006,20.23L388.552,21.701L389.364,21.409C391.81,20.243 393.935,19.889 395.381,20.418L396.468,21.73C397.543,23.422 398.043,25.572 397.952,28.214C398.531,28.643 398.889,29.293 399.023,30.126C401.464,30.022 403.352,30.639 403.918,32.993C404.985,32.564 405.414,33.184 404.898,34.38C404.718,34.793 404.439,35.23 404.11,35.634C404.118,35.634 404.123,35.63 404.123,35.63C404.831,35.509 405.039,35.468 405.918,35.234C406.718,34.572 407.202,34.209 407.202,34.209C409.264,32.384 409.264,32.384 411.068,30.826C412.881,29.718 414.339,29.343 414.339,29.343C418.093,29.705 418.093,29.705 418.823,30.839C418.827,31.022 418.823,31.218 418.802,31.409C420.339,30.368 420.448,30.297 420.877,30.026C421.389,29.805 421.827,29.73 421.827,29.73C422.398,30.143 422.398,30.143 422.793,30.084C423.06,30.193 423.235,30.384 423.235,30.384C423.131,31.651 423.131,31.651 423.277,31.822C423.273,32.139 423.177,32.497 423.177,32.497C422.556,33.53 422.31,33.943 422.206,34.114C419.164,34.772 419.152,34.772 419.152,34.772L419.243,35.601L418.231,35.476L419.018,35.743L417.814,36.38L419.293,35.747C417.048,37.801 417.048,37.801 416.252,38.718C415.335,39.589 414.743,40.514 414.673,40.618C414.918,40.701 415.048,40.809 415.048,40.809C412.648,43.009 412.648,43.009 410.281,45.126C409.96,45.23 409.681,45.289 409.41,45.334C409.36,45.701 409.043,46.23 408.581,46.651C408.177,47.034 407.768,47.409 407.364,47.789C407.31,47.901 407.256,48.018 407.206,48.122C407.231,48.147 407.252,48.159 407.252,48.159C406.981,48.672 406.789,49.026 406.577,49.434C406.448,49.697 406.443,49.705 406.443,49.705C406.443,49.705 406.431,49.714 406.427,49.714C405.96,50.589 405.285,51.864 403.502,55.234C402.773,55.897 402.068,56.489 401.381,57.03C401.652,56.901 401.91,56.776 402.177,56.668C402.706,56.451 402.881,57.251 403.118,57.084C407.085,54.193 410.952,50.801 414.806,47.334C415.018,46.88 415.177,46.459 415.277,46.059C415.448,45.922 415.623,45.784 415.793,45.647C415.889,45.451 415.964,45.264 416.056,45.068C415.827,45.214 415.602,45.364 415.373,45.509C415.389,45.33 415.402,45.151 415.377,44.993C415.281,45.23 415.185,45.464 415.089,45.697C412.598,47.318 410.11,48.955 407.585,50.693C406.902,51.218 406.364,51.205 406.356,50.701C406.389,50.147 406.956,49.314 407.627,48.818C410.889,46.222 414.127,43.343 417.381,40.576C417.881,39.814 418.485,39.039 419.198,38.297C421.756,35.639 424.593,34.464 425.51,35.676C426.41,36.222 427.785,36.376 427.818,37.659C427.831,38.993 427.377,40.501 426.631,42.072C436.931,28.38 446.627,15.584 458.173,2.872C459.818,0.872 461.993,-0.382 462.981,0.105C463.968,0.584 463.427,2.626 461.781,4.63C451.818,17.539 442.006,30.43 431.977,43.251C433.906,43.614 434.843,45.305 434.223,48.264C434.106,48.826 433.906,49.426 433.693,50.03C434.706,49.151 435.718,48.276 436.731,47.397C444.485,37.893 452.081,28.289 459.989,18.759C460.264,18.343 460.689,18.039 460.96,18.043C461.231,18.051 461.206,18.384 460.923,18.805C456.173,25.98 451.039,33.093 445.777,40.201C447.198,39.618 448.385,39.584 449.006,40.297C449.652,41.03 449.568,42.409 448.918,44.039C450.281,42.58 451.627,41.114 452.993,39.659C453.848,38.768 454.781,38.305 455.11,38.655C455.481,39.026 455.098,40.005 454.302,40.864C448.781,46.847 443.26,52.801 437.743,58.759C431.577,66.334 425.381,73.83 419.098,81.318C420.485,80.747 421.735,80.539 422.714,80.789C422.718,80.789 422.727,80.793 422.727,80.797C423.731,79.664 424.723,78.53 425.718,77.401C442.273,55.159 460.16,33.251 479.71,12.539C480.081,12.122 480.518,11.901 480.698,12.047C480.873,12.193 480.718,12.634 480.364,12.993C474.464,19.243 468.714,25.605 463.102,32.047C463.114,32.039 463.118,32.039 463.131,32.03C463.464,31.864 463.689,31.984 463.556,32.372C463.439,32.709 462.989,33.209 462.664,33.376C462.285,33.564 462.127,33.372 462.239,33.039C451.802,45.064 441.856,57.389 432.373,69.847C441.952,58.968 451.602,48.147 461.664,37.73C462.518,36.372 463.364,35.018 464.248,33.651C464.502,33.297 464.985,32.959 465.256,32.968C465.473,33.001 465.427,33.393 465.16,33.759C464.91,34.13 464.668,34.505 464.423,34.88C466.331,32.914 468.443,31.976 469.268,32.784C470.043,33.693 469.131,36.051 467.185,38.126C462.223,43.918 457.198,49.618 452.131,55.28C452.005,55.443 451.879,55.606 451.754,55.77L451.003,56.753C450.878,56.917 450.753,57.08 450.627,57.243C450.202,57.976 449.785,58.709 449.368,59.447C457.656,51.014 466.002,42.664 474.331,34.397C475.002,33.647 475.823,33.234 476.143,33.497C476.46,33.751 476.173,34.593 475.502,35.343C462.827,51.739 449.593,67.964 436.018,84.005C432.693,90.301 429.377,96.626 425.943,103.022C426.56,102.389 427.181,101.734 427.785,101.072C443.143,84.18 452.435,66.447 466.531,49.393C466.864,48.947 467.306,48.726 467.506,48.809C467.698,48.905 467.602,49.322 467.227,49.739C460.481,58.189 455.139,66.639 448.835,75.368C443.623,82.614 438.635,89.476 434.085,96.472C445.06,83.684 454.306,70.255 464.802,57.247C465.223,56.643 465.789,56.168 466.264,55.972C466.206,55.864 466.223,55.68 466.327,55.472C467.306,53.547 468.535,51.589 469.848,49.643C470.077,49.247 470.518,48.893 470.843,48.872C471.131,48.818 471.102,49.159 470.86,49.605C469.564,51.501 468.381,53.339 467.518,55.155C467.343,55.484 467.056,55.764 466.789,55.934C467.139,56.072 467.081,56.605 466.639,57.309C457.927,71.214 447.106,84.843 436.748,98.539C436.881,98.809 436.931,99.168 436.864,99.622C436.718,101.084 435.456,103.151 433.681,104.868L432.268,106.097C426.843,111.314 421.51,116.593 416.077,121.751C415.343,123.147 414.348,124.639 413.114,126.122C409.568,131.63 405.973,137.118 402.106,142.551C402.564,142.405 402.948,142.414 403.177,142.626C403.652,143.23 403.031,144.743 401.806,146.047C401.214,146.73 400.623,147.405 400.023,148.08C401.898,146.289 403.785,144.493 405.681,142.73C405.943,142.459 406.21,142.239 406.473,142.051C408.406,139.968 410.327,137.839 412.235,135.63C428.877,116.33 442.877,96.684 456.427,76.884C456.602,76.518 457.027,76.076 457.393,75.943C457.681,75.893 457.839,76.089 457.618,76.48C450.339,90.105 445.298,103.039 435.731,117.239C424.368,134.147 412.814,150.543 400.331,167.122C393.998,174.084 388.128,181.053 382.376,188.122L377.804,193.789C371.921,201.131 366.066,208.608 359.864,216.326C341.206,239.589 322.51,260.593 303.052,282.259C296.156,290.739 287.106,296.018 282.877,294.089C280.335,292.884 280.11,289.347 281.848,284.859C281.239,285.514 280.631,286.155 280.014,286.793L276.785,289.555C273.706,292.151 270.598,293.926 268.039,294.501L264.668,295.434C259.41,295.959 252.931,298.668 248.027,298.555L247.481,297.084L246.668,297.372C244.223,298.543 242.098,298.897 240.652,298.368L239.564,297.051C238.489,295.364 237.989,293.214 238.081,290.572C237.502,290.143 237.143,289.493 237.01,288.659C234.568,288.764 232.681,288.147 232.114,285.793C231.048,286.222 230.618,285.601 231.135,284.401C231.314,283.993 231.593,283.555 231.923,283.147C231.914,283.151 231.91,283.151 231.91,283.151C231.202,283.276 230.993,283.314 230.114,283.551C229.314,284.214 228.831,284.576 228.831,284.576C226.768,286.401 226.768,286.401 224.964,287.959C223.152,289.068 221.693,289.443 221.693,289.443C217.939,289.08 217.939,289.08 217.21,287.947C217.206,287.764 217.21,287.568 217.231,287.372C215.693,288.418 215.585,288.489 215.156,288.759C214.643,288.98 214.206,289.055 214.206,289.055C213.635,288.643 213.635,288.643 213.239,288.701C212.973,288.593 212.798,288.401 212.798,288.401C212.902,287.13 212.902,287.13 212.756,286.964C212.76,286.643 212.856,286.284 212.856,286.284C213.477,285.251 213.723,284.843 213.827,284.672C216.868,284.014 216.881,284.014 216.881,284.014L216.789,283.184L217.802,283.305L217.014,283.039L218.218,282.405L216.739,283.034C218.985,280.98 218.985,280.98 219.781,280.064C220.698,279.193 221.285,278.272 221.36,278.168C221.114,278.084 220.985,277.976 220.985,277.976C223.385,275.776 223.385,275.776 225.752,273.659C226.073,273.555 226.352,273.497 226.618,273.447C226.673,273.084 226.989,272.555 227.452,272.134C227.856,271.751 228.264,271.376 228.668,270.997C228.723,270.88 228.777,270.768 228.827,270.664C228.802,270.639 228.781,270.626 228.781,270.626C229.052,270.114 229.243,269.755 229.456,269.351C229.585,269.084 229.589,269.08 229.589,269.08C229.589,269.08 229.598,269.072 229.606,269.072C230.073,268.193 230.748,266.922 232.531,263.551C233.26,262.884 233.964,262.293 234.652,261.751C234.381,261.884 234.123,262.005 233.856,262.118C233.327,262.33 233.152,261.534 232.914,261.701C228.948,264.589 225.081,267.98 221.227,271.451C221.014,271.901 220.856,272.326 220.756,272.726C220.585,272.864 220.41,272.997 220.239,273.134C220.143,273.334 220.068,273.522 219.977,273.718C220.206,273.568 220.431,273.422 220.656,273.272C220.643,273.451 220.631,273.63 220.656,273.793C220.752,273.555 220.848,273.322 220.943,273.089C223.435,271.468 225.923,269.826 228.448,268.093C229.131,267.568 229.668,267.58 229.677,268.084C229.643,268.639 229.077,269.472 228.406,269.964C225.143,272.564 221.902,275.443 218.652,278.205C218.152,278.968 217.548,279.747 216.835,280.489C214.277,283.147 211.439,284.322 210.523,283.109C209.623,282.564 208.248,282.405 208.214,281.126C208.202,279.789 208.656,278.284 209.402,276.714C199.102,290.405 189.406,303.201 177.86,315.914C176.214,317.909 174.039,319.168 173.052,318.68C172.064,318.201 172.606,316.159 174.252,314.155C184.214,301.247 194.027,288.351 204.056,275.534C202.127,275.172 201.189,273.476 201.81,270.522C201.927,269.955 202.123,269.359 202.339,268.755C201.327,269.63 200.314,270.509 199.302,271.389C191.548,280.893 183.952,290.493 176.043,300.026C175.768,300.439 175.339,300.747 175.073,300.743C174.802,300.734 174.827,300.401 175.11,299.98C179.86,292.805 184.993,285.689 190.256,278.584C188.835,279.168 187.648,279.201 187.027,278.489C186.381,277.755 186.464,276.376 187.114,274.747C185.752,276.205 184.406,277.672 183.039,279.126C182.185,280.014 181.252,280.48 180.923,280.13C180.552,279.755 180.935,278.78 181.731,277.922C187.252,271.939 192.773,265.984 198.289,260.026C204.452,252.451 210.652,244.955 216.935,237.468C215.548,238.034 214.298,238.247 213.318,237.997C213.314,237.997 213.306,237.993 213.306,237.989C212.302,239.122 211.306,240.255 210.314,241.384C193.76,263.622 175.873,285.534 156.323,306.247C155.952,306.664 155.51,306.884 155.335,306.739C155.16,306.593 155.314,306.151 155.664,305.793C161.568,299.539 167.318,293.18 172.931,286.734C172.918,286.743 172.914,286.747 172.902,286.755C172.568,286.918 172.343,286.801 172.477,286.409C172.593,286.072 173.043,285.572 173.368,285.409C173.748,285.222 173.906,285.414 173.793,285.747C184.231,273.722 194.177,261.397 203.66,248.939C194.077,259.818 184.431,270.634 174.368,281.055C173.514,282.414 172.668,283.768 171.785,285.134C171.531,285.489 171.048,285.822 170.777,285.814C170.56,285.78 170.606,285.393 170.868,285.026C171.123,284.655 171.364,284.276 171.61,283.901C169.702,285.872 167.589,286.809 166.764,285.997C165.989,285.089 166.902,282.734 168.848,280.659C173.81,274.864 178.835,269.164 183.902,263.505C184.406,262.851 184.902,262.193 185.406,261.543C185.831,260.805 186.248,260.072 186.664,259.334C178.377,267.772 170.031,276.118 161.702,284.389C161.031,285.139 160.21,285.551 159.889,285.289C159.573,285.034 159.86,284.193 160.531,283.439C173.206,267.047 186.439,250.818 200.014,234.78C203.339,228.484 206.656,222.159 210.089,215.764C209.473,216.397 208.852,217.047 208.248,217.709C192.889,234.605 183.598,252.339 169.502,269.393C169.168,269.839 168.727,270.059 168.527,269.976C168.331,269.88 168.431,269.464 168.806,269.043C175.552,260.597 180.893,252.147 187.198,243.414C192.41,236.172 197.398,229.309 201.948,222.314C190.973,235.101 181.727,248.53 171.231,261.539C170.81,262.139 170.243,262.618 169.768,262.814C169.827,262.922 169.806,263.101 169.706,263.314C168.723,265.234 167.498,267.193 166.185,269.143C165.956,269.534 165.514,269.893 165.189,269.914C164.902,269.964 164.931,269.626 165.173,269.176C166.468,267.284 167.652,265.447 168.514,263.626C168.689,263.301 168.977,263.018 169.243,262.851C168.893,262.714 168.952,262.18 169.393,261.476C172.731,256.151 176.381,250.868 180.189,245.601C169.543,257.959 158.789,270.009 147.789,282.259C140.893,290.739 131.843,296.018 127.614,294.089C125.068,292.884 124.843,289.347 126.585,284.859C125.973,285.514 125.368,286.155 124.752,286.793L121.518,289.555C118.443,292.151 115.335,293.926 112.773,294.501L109.406,295.434C104.143,295.959 97.668,298.668 92.76,298.555L92.214,297.084L91.406,297.372C88.956,298.543 86.835,298.897 85.389,298.368L84.302,297.051C83.893,296.414 83.593,295.684 83.352,294.909C77.76,302.022 72.018,308.98 65.723,315.914C64.081,317.909 61.906,319.168 60.918,318.68C59.927,318.201 60.468,316.159 62.118,314.155C68.685,305.643 75.185,297.139 81.727,288.655C79.293,288.759 77.414,288.139 76.852,285.793C76.227,286.043 75.856,285.905 75.731,285.53C71.827,290.368 67.91,295.205 63.91,300.026C63.635,300.439 63.206,300.747 62.935,300.743C62.664,300.734 62.693,300.401 62.973,299.98C66.468,294.701 70.21,289.455 74.018,284.222C73.748,284.439 73.564,284.576 73.564,284.576C71.506,286.401 71.506,286.401 69.698,287.959C67.885,289.068 66.427,289.443 66.427,289.443C62.673,289.08 62.673,289.08 61.948,287.947C61.939,287.764 61.948,287.568 61.968,287.372C60.839,288.143 60.481,288.38 60.202,288.559C54.981,294.53 49.664,300.443 44.189,306.247C43.818,306.664 43.377,306.884 43.202,306.739C43.027,306.593 43.181,306.151 43.531,305.793C48.748,300.268 53.827,294.643 58.818,288.968C58.389,288.659 58.335,288.647 57.977,288.701C57.71,288.593 57.535,288.401 57.535,288.401C57.639,287.13 57.639,287.13 57.489,286.964C57.498,286.643 57.589,286.284 57.589,286.284C58.148,285.355 58.398,284.943 58.518,284.743C56.902,286.084 55.318,286.676 54.631,285.997C54.148,285.43 54.381,284.28 55.052,283.005C54.164,282.543 52.981,282.318 52.952,281.126C52.952,281.076 52.973,281.018 52.973,280.968C51.835,282.101 50.702,283.259 49.564,284.389C48.898,285.139 48.073,285.551 47.756,285.289C47.731,285.268 47.735,285.226 47.718,285.205C39.693,295.755 31.723,305.868 22.593,315.914C20.952,317.909 18.777,319.168 17.789,318.68C16.798,318.201 17.339,316.159 18.989,314.155C28.952,301.247 38.764,288.351 48.789,275.534C46.86,275.172 45.927,273.476 46.543,270.522C46.664,269.955 46.86,269.359 47.077,268.755C46.064,269.63 45.052,270.509 44.035,271.389C36.285,280.893 28.689,290.493 20.781,300.026C20.506,300.439 20.077,300.747 19.806,300.743C19.535,300.734 19.564,300.401 19.843,299.98C24.598,292.805 29.731,285.689 34.993,278.584C33.568,279.168 32.381,279.201 31.764,278.489C31.118,277.755 31.198,276.376 31.852,274.747C30.489,276.205 29.139,277.672 27.773,279.126C26.918,280.014 25.989,280.48 25.656,280.13C25.285,279.755 25.668,278.78 26.468,277.922C31.985,271.939 37.506,265.984 43.027,260.026C49.189,252.451 55.385,244.955 61.673,237.468C60.285,238.034 59.031,238.247 58.052,237.997C58.048,237.997 58.043,237.993 58.039,237.989C57.035,239.122 56.043,240.255 55.052,241.384C38.498,263.622 20.61,285.534 1.06,306.247C0.689,306.664 0.248,306.884 0.073,306.739C-0.102,306.593 0.052,306.151 0.402,305.793C6.306,299.539 12.056,293.18 17.668,286.734C17.656,286.743 17.648,286.747 17.635,286.755C17.306,286.918 17.077,286.801 17.214,286.409C17.327,286.072 17.781,285.572 18.102,285.409C18.485,285.222 18.639,285.414 18.531,285.747C28.968,273.722 38.91,261.397 48.398,248.939C38.814,259.818 29.164,270.634 19.106,281.055C18.252,282.414 17.402,283.768 16.523,285.134C16.264,285.489 15.785,285.822 15.514,285.814C15.298,285.78 15.343,285.393 15.606,285.026C15.86,284.655 16.102,284.276 16.348,283.901C14.435,285.872 12.323,286.809 11.502,285.997C10.727,285.089 11.639,282.734 13.585,280.659C18.548,274.864 23.568,269.164 28.639,263.505C29.143,262.851 29.639,262.193 30.143,261.543C30.568,260.805 30.981,260.072 31.398,259.334C23.11,267.772 14.764,276.118 6.435,284.389C5.768,285.139 4.943,285.551 4.627,285.289C4.306,285.034 4.598,284.193 5.268,283.439C17.943,267.047 31.177,250.818 44.752,234.78C48.073,228.484 51.393,222.159 54.827,215.764C54.206,216.397 53.589,217.047 52.981,217.709C37.627,234.605 28.335,252.339 14.235,269.393C13.902,269.839 13.46,270.059 13.26,269.976C13.068,269.88 13.168,269.464 13.543,269.043C20.289,260.597 25.627,252.147 31.935,243.414C37.148,236.172 42.131,229.309 46.685,222.314C35.706,235.101 26.464,248.53 15.968,261.539C15.548,262.139 14.981,262.618 14.506,262.814C14.564,262.922 14.543,263.101 14.443,263.314C13.46,265.234 12.231,267.193 10.918,269.143C10.693,269.534 10.248,269.893 9.923,269.914C9.635,269.964 9.664,269.626 9.91,269.176C11.206,267.284 12.389,265.447 13.248,263.626C13.427,263.301 13.714,263.018 13.981,262.851C13.631,262.714 13.689,262.18 14.131,261.476C22.839,247.572 33.664,233.943 44.023,220.247C43.889,219.972 43.835,219.618 43.902,219.164C44.052,217.697 45.31,215.634 47.089,213.918L48.498,212.684C53.927,207.472 59.26,202.193 64.689,197.034C65.423,195.634 66.418,194.147 67.656,192.664C71.198,187.155 74.793,181.668 78.664,176.234C78.206,176.38 77.823,176.372 77.589,176.155C77.118,175.555 77.735,174.043 78.96,172.739C79.552,172.051 80.148,171.376 80.743,170.701C78.868,172.497 76.981,174.289 75.085,176.055C74.823,176.322 74.556,176.547 74.298,176.734C72.364,178.814 70.443,180.947 68.531,183.155C51.889,202.451 37.893,222.097 24.339,241.897C24.164,242.268 23.743,242.705 23.377,242.843C23.085,242.893 22.931,242.693 23.152,242.305C30.431,228.676 35.473,215.743 45.035,201.547C56.402,184.634 67.956,168.239 80.435,151.659C85.596,145.986 90.451,140.308 95.185,134.574L102.963,124.996C108.847,117.654 114.703,110.176 120.906,102.459C139.564,79.197 158.256,58.189 177.718,36.522C184.61,28.047 193.664,22.768 197.889,24.697C200.435,25.901 200.66,29.439 198.918,33.922C199.531,33.272 200.135,32.63 200.752,31.989L203.985,29.23C207.064,26.634 210.173,24.855 212.731,24.28L216.098,23.351C221.36,22.826 227.839,20.114 232.743,20.23L233.289,21.701L234.102,21.409C236.548,20.243 238.668,19.889 240.114,20.418L241.206,21.73C242.014,23.005 242.498,24.543 242.648,26.351C242.977,27.018 243.139,27.822 243.152,28.743C243.439,29.126 243.668,29.568 243.76,30.126C244.527,30.093 245.21,30.172 245.848,30.314L247.114,29.23C250.193,26.634 253.302,24.855 255.86,24.28L259.227,23.351C264.489,22.826 270.968,20.114 275.873,20.23L276.418,21.701L277.231,21.409C279.677,20.243 281.798,19.889 283.243,20.418L284.331,21.73C284.739,22.372 285.039,23.101 285.281,23.872C290.873,16.759 296.614,9.801 302.91,2.872C304.552,0.872 306.727,-0.382 307.714,0.105C308.706,0.584 308.164,2.626 306.514,4.63C299.948,13.143 293.448,21.647 286.906,30.126C289.339,30.026 291.218,30.643 291.785,32.993C292.406,32.739 292.777,32.88 292.906,33.251C296.806,28.418 300.723,23.58 304.723,18.759C305.002,18.343 305.427,18.039 305.698,18.043C305.968,18.051 305.943,18.384 305.66,18.805C302.164,24.084 298.423,29.326 294.614,34.564C294.889,34.347 295.068,34.209 295.068,34.209C297.131,32.384 297.131,32.384 298.935,30.826C300.748,29.718 302.206,29.343 302.206,29.343C305.96,29.705 305.96,29.705 306.685,30.839C306.693,31.022 306.685,31.218 306.668,31.409C307.798,30.643 308.152,30.405 308.431,30.222C313.656,24.251 318.968,18.339 324.443,12.539C324.814,12.122 325.256,11.901 325.431,12.047C325.606,12.193 325.452,12.634 325.102,12.993C319.885,18.518 314.806,24.139 309.814,29.818C310.243,30.126 310.298,30.139 310.656,30.084C310.927,30.193 311.098,30.384 311.098,30.384C310.998,31.651 310.998,31.651 311.143,31.822C311.135,32.139 311.043,32.497 311.043,32.497C310.485,33.426 310.235,33.839 310.114,34.043C311.731,32.701 313.314,32.109 314.002,32.784C314.485,33.351 314.252,34.501 313.581,35.776C314.468,36.243 315.652,36.468 315.681,37.659C315.681,37.672 315.68,37.685 315.678,37.698L315.663,37.779ZM246.814,296.043L245.356,291.351L247.085,296.009L246.814,296.043ZM91.552,296.043L90.093,291.351L91.818,296.009L91.552,296.043ZM59.143,284.193C59.218,284.155 59.281,284.122 59.356,284.08C59.252,284.243 59.143,284.405 59.039,284.568C58.898,284.597 58.773,284.626 58.614,284.659C58.793,284.509 58.968,284.364 59.143,284.193ZM75.412,266.938C75.074,267.303 74.729,267.661 74.393,268.026C74.393,268.032 74.394,268.038 74.396,268.042L74.407,268.068C74.409,268.073 74.41,268.078 74.41,268.084C74.377,268.639 73.814,269.472 73.143,269.964C72.273,270.659 71.406,271.426 70.539,272.155C67.781,275.13 65.052,278.134 62.235,281.055C61.91,281.572 61.577,282.089 61.252,282.605C61.21,282.772 61.114,282.955 60.91,283.147C60.66,283.539 60.414,283.93 60.16,284.326C61.593,284.018 61.618,284.014 61.618,284.014L61.527,283.184C61.956,283.234 62.177,283.264 62.318,283.28C62.331,283.268 62.339,283.255 62.352,283.243C61.781,283.051 61.748,283.039 61.748,283.039L62.956,282.405L61.473,283.034C63.718,280.98 63.718,280.98 64.514,280.064C65.431,279.193 66.023,278.272 66.098,278.168C65.852,278.084 65.723,277.976 65.723,277.976C68.118,275.776 68.118,275.776 70.485,273.659C70.806,273.555 71.089,273.497 71.356,273.447C71.406,273.084 71.723,272.555 72.189,272.134C72.589,271.751 72.998,271.376 73.402,270.997C73.46,270.88 73.514,270.768 73.56,270.664C73.535,270.639 73.514,270.626 73.514,270.626C73.789,270.114 73.977,269.755 74.193,269.351C74.318,269.084 74.323,269.08 74.323,269.08C74.327,269.08 74.335,269.072 74.343,269.072C74.614,268.559 74.964,267.897 75.556,266.78L75.412,266.938ZM224.177,281.93C224.431,281.793 224.681,281.734 225.085,281.639L224.177,281.93ZM68.914,281.93C69.168,281.793 69.414,281.734 69.823,281.639C69.823,281.639 69.818,281.639 68.914,281.93ZM242.906,273.359C242.51,273.422 242.031,273.497 241.427,273.593C241.427,273.593 242.052,273.489 242.918,273.347C242.91,273.355 242.91,273.355 242.906,273.359ZM87.652,273.347C87.648,273.355 87.648,273.355 87.643,273.359C87.248,273.422 86.768,273.497 86.16,273.593C86.16,273.593 86.789,273.489 87.652,273.347ZM248.627,252.718C247.498,253.884 246.477,255.122 245.593,256.389C243.618,256.914 241.602,257.534 239.385,258.676C242.506,256.23 245.698,253.105 248.789,250.368C252.218,247.334 255.573,244.334 258.885,241.318C258.573,241.739 258.248,242.151 257.931,242.576C257.639,243.005 256.914,243.697 257.714,243.693C254.673,246.58 251.648,249.572 248.627,252.718ZM85.398,258.126C85.76,257.664 86.106,257.197 86.464,256.734C88.827,254.697 91.202,252.422 93.523,250.368C94.327,249.655 95.093,248.951 95.893,248.243C93.518,251.114 91.127,253.976 88.768,256.864C87.681,257.189 86.56,257.614 85.398,258.126ZM232.877,251.109C233.793,249.43 234.602,247.793 235.298,246.209C236.414,245.293 237.527,244.368 238.643,243.472C238.568,243.651 238.556,243.805 238.627,243.889C238.752,244.034 239.181,243.855 239.518,243.48C240.506,242.443 241.502,241.422 242.493,240.384C246.473,237.193 250.418,233.934 254.218,230.176C254.681,229.83 255.143,229.501 255.61,229.176C256.452,228.855 257.298,228.539 258.143,228.214C258.06,228.297 257.977,228.376 257.893,228.455C257.048,229.122 256.21,229.797 255.364,230.468C255.581,230.401 255.793,230.33 256.01,230.259C253.035,233.109 250.056,235.939 247.052,238.714C242.26,242.351 237.435,246.555 232.877,251.109ZM83.968,230.889C81.689,234.151 79.335,237.468 76.923,240.818C76.443,241.176 75.968,241.534 75.568,241.718C75.227,241.868 74.877,242.072 74.535,242.234C77.818,238.489 80.931,234.697 83.968,230.889ZM230.831,241.718C230.489,241.868 230.139,242.072 229.798,242.234C236.831,234.222 243.143,226.014 249.427,217.805C253.106,214.209 256.718,210.58 260.239,206.922C260.089,207.751 260.198,208.422 260.623,208.809C260.731,208.909 260.868,208.964 261.014,209.018C257.952,212.272 254.889,215.559 251.773,218.901C245.081,226.08 238.685,233.326 232.46,240.614C231.889,241.039 231.31,241.497 230.831,241.718ZM96.11,217.709C96.718,217.047 97.335,216.397 97.956,215.764C97.285,217.009 96.652,218.226 95.989,219.472C91.693,224.097 87.527,228.751 83.431,233.422C87.31,228.139 91.41,222.884 96.11,217.709ZM262.135,215.814C262.631,215.964 263.156,216.076 263.648,216.222C262.077,217.422 260.689,217.693 259.068,219.097C259.723,218.884 260.348,218.701 261.006,218.489C260.973,218.518 260.939,218.547 260.91,218.576C258.814,219.751 256.723,221.555 254.781,223.647C252.281,225.043 249.727,226.784 247.16,228.701C254.614,220.043 262.177,211.876 269.952,203.351C271.143,202.289 272.298,201.193 273.331,199.964C274.377,198.722 275.423,197.484 276.46,196.255C285.064,187.009 293.893,178.301 302.718,169.668C301.348,171.314 299.993,172.964 298.631,174.609C297.952,175.289 297.273,175.968 296.631,176.655C294.252,179.184 292.318,181.809 290.51,184.543C286.535,189.455 282.639,194.409 278.835,199.405C273.193,204.551 267.76,210.572 262.135,215.814ZM219.977,197.001C219.968,197.014 219.96,197.026 219.956,197.034C219.948,197.043 219.935,197.055 219.927,197.064C219.943,197.043 219.96,197.022 219.977,197.001ZM300.078,124.996L285.534,124.996L269.809,174.626L252.611,124.996L244.159,124.996L227.452,174.626L211.236,124.996L196.691,124.996L221.949,193.789L232.956,193.789L241.309,172.365L248.483,150.449L255.756,172.169L264.306,193.789L275.313,193.789L300.078,124.996ZM316.26,124.996L301.715,124.996L314.752,160.505C313.794,161.608 312.836,162.711 311.877,163.814C313.033,163.089 314.167,162.44 315.259,161.887L314.752,160.505L316.385,158.626C318.668,158.043 321.348,156.734 324.156,154.972C322.652,156.697 321.152,158.43 319.648,160.159C318.303,160.5 316.823,161.096 315.259,161.887L326.972,193.789L337.979,193.789L346.332,172.365L353.506,150.449L360.779,172.169L369.329,193.789L377.804,193.789C379.324,191.892 380.846,190.004 382.376,188.122L405.102,124.996L390.557,124.996L374.832,174.626L357.634,124.996L357.261,124.996C353.184,129.314 349.061,133.521 344.917,137.666L332.475,174.626L316.26,124.996ZM106.213,124.996L102.963,124.996C100.386,128.212 97.804,131.401 95.185,134.574L116.925,193.789L127.932,193.789L136.286,172.365L143.46,150.449L150.732,172.169L159.283,193.789L170.29,193.789L195.055,124.996L180.51,124.996L164.786,174.626L147.588,124.996L139.136,124.996L122.429,174.626L106.213,124.996ZM357.261,124.996C358.033,124.178 358.804,123.356 359.573,122.53C360.61,121.301 361.656,120.064 362.702,118.822C363.735,117.593 364.889,116.493 366.081,115.434C373.856,106.905 381.418,98.743 388.873,90.084C386.306,92.001 383.752,93.739 381.252,95.139C379.31,97.23 377.218,99.034 375.123,100.209C375.093,100.239 375.06,100.268 375.027,100.293C375.681,100.08 376.31,99.901 376.964,99.684C375.343,101.089 373.956,101.364 372.385,102.559C372.877,102.709 373.402,102.818 373.898,102.968C368.273,108.209 362.839,114.23 357.198,119.38C355.766,121.258 354.322,123.13 352.867,124.996L349.182,124.996L346.461,133.079C346.149,133.467 345.836,133.855 345.523,134.243C343.714,136.976 341.781,139.601 339.402,142.126C338.76,142.818 338.081,143.497 337.402,144.172C336.039,145.822 334.685,147.472 333.314,149.118C337.187,145.327 341.062,141.523 344.917,137.666L346.461,133.079C348.621,130.395 350.757,127.702 352.867,124.996L357.261,124.996ZM260.814,121.751C260.823,121.739 260.831,121.73 260.843,121.722C260.827,121.743 260.81,121.759 260.793,121.78C260.802,121.772 260.806,121.759 260.814,121.751ZM386.606,100.98C382.927,104.572 379.314,108.205 375.793,111.864C375.943,111.034 375.835,110.364 375.41,109.972C375.302,109.876 375.164,109.822 375.018,109.768C378.081,106.514 381.143,103.226 384.26,99.884C390.952,92.701 397.348,85.455 403.573,78.168C404.139,77.747 404.723,77.284 405.202,77.068C405.543,76.918 405.893,76.714 406.235,76.551C399.202,84.564 392.889,92.772 386.606,100.98ZM288.898,80.247C283.948,87.259 278.739,94.234 272.523,101.072C271.918,101.734 271.298,102.389 270.677,103.022C273.189,98.347 275.61,93.739 278.043,89.122C281.143,86.714 284.248,83.989 287.293,81.08C287.793,80.901 288.335,80.614 288.898,80.247ZM291.71,77.968C292.189,77.609 292.664,77.251 293.068,77.068C293.702,76.784 294.352,76.426 294.993,76.105C289.793,82.968 284.543,89.805 278.823,96.472C282.818,90.33 287.185,84.251 291.71,77.968ZM403.156,67.672C402.239,69.351 401.431,70.989 400.735,72.576C399.618,73.489 398.506,74.418 397.389,75.309C397.464,75.13 397.477,74.98 397.406,74.897C397.281,74.747 396.852,74.93 396.514,75.305C395.527,76.343 394.531,77.364 393.539,78.397C389.56,81.593 385.614,84.851 381.81,88.609C381.352,88.951 380.889,89.28 380.423,89.609C379.581,89.926 378.735,90.247 377.889,90.568C377.968,90.489 378.056,90.409 378.139,90.33C378.985,89.664 379.823,88.989 380.668,88.318C380.452,88.384 380.239,88.455 380.023,88.526C382.998,85.676 385.977,82.847 388.981,80.068C393.773,76.434 398.598,72.23 403.156,67.672ZM387.406,66.068C388.531,64.897 389.556,63.664 390.439,62.393C392.414,61.872 394.431,61.247 396.648,60.109C393.527,62.555 390.335,65.68 387.243,68.418C383.814,71.447 380.46,74.447 377.148,77.468C377.46,77.047 377.785,76.634 378.102,76.205C378.393,75.78 379.118,75.084 378.318,75.093C381.36,72.205 384.385,69.214 387.406,66.068ZM300.877,72.776C300.777,72.909 300.677,73.047 300.577,73.18C300.718,73.022 300.856,72.859 300.993,72.701L300.877,72.776ZM283.235,60.659C282.873,61.118 282.531,61.584 282.168,62.047C279.81,64.089 277.431,66.364 275.11,68.418C274.306,69.13 273.539,69.83 272.743,70.539C275.114,67.672 277.506,64.809 279.864,61.922C280.952,61.597 282.077,61.172 283.235,60.659ZM307.207,34.731C307.021,34.771 307.014,34.772 307.014,34.772L307.11,35.601C306.681,35.547 306.456,35.522 306.314,35.505C306.302,35.518 306.293,35.526 306.281,35.539C306.852,35.734 306.885,35.743 306.885,35.743L305.677,36.38L307.16,35.747C304.914,37.801 304.914,37.801 304.118,38.718C303.202,39.589 302.61,40.514 302.535,40.618C302.781,40.701 302.914,40.809 302.914,40.809C300.514,43.009 300.514,43.009 298.148,45.126C297.827,45.23 297.548,45.289 297.277,45.334C297.227,45.701 296.91,46.23 296.448,46.651C296.043,47.034 295.635,47.409 295.231,47.789C295.173,47.901 295.123,48.018 295.073,48.122C295.098,48.147 295.118,48.159 295.118,48.159C294.843,48.672 294.656,49.026 294.439,49.434C294.314,49.697 294.31,49.705 294.31,49.705C294.306,49.705 294.298,49.714 294.293,49.714C294.018,50.226 293.668,50.884 293.077,52.005C293.46,51.584 293.856,51.176 294.243,50.755C294.239,50.734 294.223,50.726 294.223,50.701C294.256,50.147 294.818,49.314 295.493,48.818C296.36,48.126 297.227,47.359 298.093,46.63C300.856,43.655 303.581,40.647 306.398,37.73C306.479,37.601 306.561,37.472 306.643,37.343L307.136,36.568C307.218,36.439 307.3,36.309 307.381,36.18C307.423,36.009 307.518,35.83 307.723,35.639C307.973,35.247 308.218,34.851 308.473,34.459L307.207,34.731ZM280.981,45.434C280.985,45.43 280.985,45.43 280.989,45.426C281.385,45.359 281.864,45.289 282.473,45.193C282.473,45.193 281.848,45.293 280.981,45.434ZM393.123,45.426C393.523,45.359 394.002,45.289 394.606,45.193C394.606,45.193 393.981,45.293 393.114,45.434C393.123,45.43 393.123,45.43 393.123,45.426ZM411.856,36.851C411.602,36.989 411.352,37.047 410.948,37.147C410.948,37.147 410.948,37.143 411.856,36.851ZM299.723,36.851C299.468,36.989 299.218,37.047 298.81,37.147C298.81,37.147 298.814,37.143 299.723,36.851ZM309.489,34.593C309.414,34.63 309.352,34.664 309.277,34.701C309.381,34.539 309.489,34.38 309.598,34.218C309.739,34.184 309.86,34.159 310.018,34.126C309.839,34.276 309.664,34.422 309.489,34.593ZM389.218,22.739L390.677,27.43L388.948,22.776L389.218,22.739ZM277.081,22.739L278.539,27.43L276.814,22.776L277.081,22.739ZM233.952,22.739L234.752,25.305C234.71,25.322 234.677,25.326 234.635,25.343L233.685,22.776L233.952,22.739Z" style="fill:white;fill-opacity:0.795227;"/>
        </g>
    </g>
</svg>
